<?xml version="1.0" encoding="UTF-8" standalone="no"?><!DOCTYPE svg PUBLIC "-//W3C//DTD SVG 1.1//EN" "http://www.w3.org/Graphics/SVG/1.1/DTD/svg11.dtd"><svg width="100%" height="100%" viewBox="0 0 1067 1067" version="1.1" xmlns="http://www.w3.org/2000/svg" xmlns:xlink="http://www.w3.org/1999/xlink" xml:space="preserve" xmlns:serif="http://www.serif.com/" style="fill-rule:evenodd;clip-rule:evenodd;stroke-linejoin:round;stroke-miterlimit:2;"><path d="M213.412,367.754l-0,331.158c-0,11.764 -9.55,21.314 -21.314,21.314l-130.391,0c-11.763,0 -21.314,-9.55 -21.314,-21.314l0,-331.158c0,-11.763 9.551,-21.314 21.314,-21.314l130.391,0c11.764,0 21.314,9.551 21.314,21.314Z" style="fill:#fe7070;"/><path d="M1026.27,367.754l0,331.158c0,11.764 -9.55,21.314 -21.314,21.314l-130.39,0c-11.764,0 -21.314,-9.55 -21.314,-21.314l-0,-331.158c-0,-11.763 9.55,-21.314 21.314,-21.314l130.39,0c11.764,0 21.314,9.551 21.314,21.314Z" style="fill:#652ed1;"/><path d="M416.627,321.935l0,422.796c0,11.764 -9.55,21.314 -21.314,21.314l-130.39,0c-11.764,0 -21.314,-9.55 -21.314,-21.314l-0,-422.796c-0,-11.763 9.55,-21.314 21.314,-21.314l130.39,0c11.764,0 21.314,9.551 21.314,21.314Z" style="fill:#fece5e;"/><path d="M619.843,254.123l-0,558.42c-0,11.764 -9.551,21.314 -21.314,21.314l-130.391,0c-11.764,0 -21.314,-9.55 -21.314,-21.314l-0,-558.42c-0,-11.763 9.55,-21.314 21.314,-21.314l130.391,0c11.763,0 21.314,9.551 21.314,21.314Z" style="fill:#20d4a6;"/><path d="M823.058,321.935l0,422.796c0,11.764 -9.55,21.314 -21.314,21.314l-130.391,0c-11.763,0 -21.314,-9.55 -21.314,-21.314l0,-422.796c0,-11.763 9.551,-21.314 21.314,-21.314l130.391,0c11.764,0 21.314,9.551 21.314,21.314Z" style="fill:#5ba5ff;"/></svg>